<?xml version="1.0" standalone="no"?>
<!DOCTYPE svg PUBLIC "-//W3C//DTD SVG 20010904//EN"
 "http://www.w3.org/TR/2001/REC-SVG-20010904/DTD/svg10.dtd">
<svg version="1.0" xmlns="http://www.w3.org/2000/svg"
 width="2560.000000pt" height="940.000000pt" viewBox="0 0 2560.000000 940.000000"
 preserveAspectRatio="xMidYMid meet">

<g transform="translate(0.000000,940.000000) scale(0.100000,-0.100000)"
fill="#000000" stroke="none">
<path d="M13983 9282 l-212 -117 -871 -999 c-478 -549 -872 -1001 -875 -1005
-2 -4 63 -88 145 -187 82 -98 150 -181 150 -184 0 -3 -57 -37 -127 -75 -71
-37 -142 -77 -160 -87 l-31 -19 -721 641 c-397 352 -727 640 -734 640 -6 0
-104 -54 -217 -119 l-205 -118 -35 -63 -35 -63 -3 162 c-2 105 -6 161 -13 161
-6 0 -535 -167 -1177 -372 l-1166 -372 -165 -94 c-91 -52 -185 -105 -208 -118
-40 -23 -43 -28 -43 -67 -1 -66 50 -1117 56 -1164 6 -50 -13 -51 228 12 94 25
171 43 172 42 4 -4 24 -204 24 -237 l0 -27 -189 5 c-208 5 -319 -5 -499 -44
-232 -52 -477 -153 -663 -275 -50 -33 -93 -58 -96 -55 -3 2 3 46 12 98 35 200
31 484 -11 686 -52 254 -189 528 -382 769 -280 347 -778 656 -1228 761 -101
24 -370 65 -544 83 -149 16 -548 16 -720 0 -717 -65 -1423 -277 -2160 -646
-232 -116 -380 -201 -685 -393 l-240 -152 -177 -187 c-164 -173 -177 -189
-164 -208 7 -11 262 -440 566 -953 304 -514 559 -936 566 -939 7 -2 102 34
212 81 111 47 204 86 209 86 5 0 32 -55 62 -122 407 -931 1774 -4025 1780
-4031 4 -4 399 119 878 273 l871 280 216 137 c119 76 216 144 216 151 0 10
-302 1182 -347 1347 -3 11 20 -20 51 -69 218 -343 520 -585 881 -705 502 -166
1095 -73 1585 249 110 73 241 170 287 213 24 22 34 27 37 16 2 -8 16 -151 31
-319 15 -168 29 -307 31 -309 2 -2 372 51 823 117 l820 121 221 111 220 111 0
519 c0 291 4 520 9 520 5 0 683 -335 1507 -744 l1499 -743 115 59 c63 33 161
85 217 116 l103 55 2 710 3 711 105 22 c152 31 250 60 380 111 124 49 309 139
405 197 33 20 63 36 66 36 3 0 -23 -174 -59 -386 -35 -213 -60 -390 -55 -394
4 -4 423 -73 930 -154 l922 -148 171 93 c96 51 175 88 180 83 4 -5 72 -134
149 -286 l142 -276 149 70 c83 39 152 69 154 67 2 -2 14 -80 25 -173 11 -93
23 -171 25 -174 6 -5 2073 -372 2100 -372 11 0 115 50 232 112 185 97 213 114
209 132 -8 39 -75 473 -75 488 0 12 22 18 95 27 148 19 290 55 414 105 l113
45 -6 -42 c-14 -104 -78 -699 -74 -701 1 -2 314 -47 693 -101 380 -54 693
-101 697 -104 4 -3 10 -133 14 -287 l7 -282 728 -231 727 -232 221 111 220
110 661 1993 c364 1095 794 2390 955 2876 162 487 294 886 292 887 -2 2 -1502
368 -1869 456 l-127 30 -146 -82 c-80 -46 -150 -79 -154 -74 -5 5 -18 58 -30
118 -11 61 -24 113 -28 117 -5 4 -532 122 -1172 263 l-1164 256 -215 -122
-215 -122 7 -311 c11 -566 10 -860 -2 -857 -30 6 -302 -20 -399 -39 -231 -44
-511 -157 -703 -283 l-85 -55 -7 27 c-5 15 -82 502 -173 1082 -91 580 -168
1065 -170 1078 l-5 22 -782 0 -782 0 -206 -117 c-113 -64 -206 -120 -208 -125
-2 -4 -284 -8 -628 -8 l-624 0 -213 -122 -214 -121 -43 -263 -42 -263 -82 68
c-232 196 -524 345 -823 420 -125 32 -304 61 -371 61 -22 0 -54 3 -71 6 -29 6
32 41 636 365 367 197 671 363 677 369 7 7 -146 243 -474 735 -267 399 -487
724 -490 724 -3 0 -100 -53 -217 -117z m391 -889 c130 -177 236 -326 236 -331
0 -9 -1408 -712 -1427 -712 -6 0 -30 29 -52 65 -36 57 -40 68 -29 84 49 70
1024 1229 1029 1223 3 -4 113 -152 243 -329z m4200 -1200 c12 -60 316 -2049
316 -2070 0 -13 -25 -54 -59 -96 -164 -202 -311 -482 -382 -723 -129 -445 -92
-885 108 -1277 151 -295 389 -531 685 -678 l86 -42 16 -106 c19 -126 20 -141
5 -141 -35 0 -1117 165 -1123 171 -3 2 -73 459 -156 1014 -83 556 -153 1016
-156 1024 -3 10 -8 11 -15 4 -6 -6 -103 -248 -215 -538 -112 -290 -208 -534
-213 -543 -7 -12 -16 -2 -39 49 -17 35 -161 345 -321 689 -180 387 -296 626
-306 628 -8 2 -15 0 -15 -5 -1 -27 -257 -1613 -261 -1617 -5 -5 -224 31 -849
139 -118 21 -216 38 -218 40 -1 1 31 204 72 451 l75 448 173 175 c95 97 204
208 241 247 l68 71 -170 153 c-105 94 -171 161 -171 172 0 19 311 1882 334
2003 8 39 17 87 20 108 l7 37 542 0 543 0 135 -741 c73 -407 137 -746 141
-752 4 -6 10 -9 13 -6 3 4 68 359 145 790 77 431 146 819 155 862 8 43 15 81
15 83 0 2 173 4 384 4 l384 0 6 -27z m-7394 -458 c179 -170 371 -353 427 -408
l103 -99 -149 -157 c-1051 -1109 -1272 -1344 -1269 -1353 2 -6 305 -130 673
-275 l670 -265 42 -73 c104 -181 303 -401 483 -534 272 -202 598 -335 953
-387 l117 -18 0 -468 0 -468 -1700 850 c-935 467 -1704 850 -1710 850 -7 0
-10 -304 -10 -895 0 -492 -3 -895 -7 -895 -5 0 -53 -7 -108 -15 -284 -43 -740
-103 -744 -99 -2 2 -18 165 -34 362 l-31 358 58 112 c149 293 222 568 233 882
15 457 -120 843 -414 1185 l-68 79 -62 749 c-34 412 -64 751 -66 753 -2 2 -91
-19 -196 -47 -106 -28 -195 -49 -197 -46 -2 2 -7 82 -10 179 -7 167 -6 176 12
181 10 4 231 69 489 146 259 76 564 167 678 201 115 34 210 60 212 59 1 -2 22
-328 45 -724 23 -396 45 -724 50 -728 4 -4 194 254 422 575 228 321 464 651
524 735 l109 152 75 -73 c41 -40 221 -211 400 -381z m-7140 275 c266 -20 541
-67 701 -121 176 -59 385 -173 565 -310 248 -187 456 -486 528 -758 202 -756
-339 -1735 -1307 -2366 -82 -53 -88 -59 -82 -84 10 -41 565 -2174 570 -2191 4
-12 -15 -22 -78 -41 -45 -14 -252 -81 -460 -148 -208 -68 -380 -121 -382 -119
-2 1 -436 971 -966 2153 -529 1183 -965 2154 -969 2158 -4 4 -113 -45 -243
-109 -130 -65 -238 -116 -240 -113 -8 8 -654 1104 -670 1135 l-15 30 46 29
c216 132 539 300 773 404 764 336 1573 500 2229 451z m9826 -270 c383 -31 704
-162 979 -398 44 -37 103 -95 132 -128 l52 -61 -162 -174 c-89 -96 -408 -436
-710 -757 -301 -321 -545 -588 -542 -593 10 -14 152 -11 256 7 302 52 507 161
728 388 l83 86 37 -32 c175 -153 681 -612 681 -618 0 -5 -42 -47 -92 -96 -349
-329 -742 -535 -1278 -667 -587 -146 -1125 -74 -1544 207 -116 77 -277 233
-356 343 -69 98 -158 273 -189 375 -59 196 -85 479 -62 674 52 424 273 792
638 1061 300 222 700 361 1108 386 28 2 64 4 81 5 17 1 89 -3 160 -8z m8238
-208 l730 -148 253 -1200 c139 -659 256 -1205 258 -1213 4 -9 9 -11 15 -5 4 5
106 414 225 909 225 935 300 1244 307 1250 2 2 24 -1 48 -6 25 -6 276 -62 558
-124 283 -62 516 -116 518 -118 3 -3 -359 -1107 -804 -2453 l-809 -2449 -29 2
c-16 2 -193 52 -394 112 l-365 108 -7 119 c-4 66 -22 736 -39 1489 -17 754
-35 1374 -39 1379 -12 12 -12 10 -224 -1192 -106 -601 -195 -1094 -198 -1097
-3 -3 -65 4 -139 15 -263 40 -714 112 -717 115 -2 2 10 149 27 327 l31 323 72
65 c247 224 471 561 581 875 125 357 140 765 41 1095 -76 252 -200 467 -370
640 l-64 66 35 378 c20 208 35 385 33 394 -2 11 -47 27 -162 58 -87 24 -160
45 -162 47 -2 2 1 90 8 195 12 183 13 192 33 192 11 -1 348 -67 749 -148z
m-1372 -1133 c366 -74 657 -291 812 -606 83 -169 116 -305 123 -513 6 -174
-17 -331 -72 -498 -198 -590 -708 -1045 -1315 -1173 -128 -27 -390 -32 -510
-10 -511 92 -877 461 -966 975 -20 113 -14 372 11 486 86 394 333 771 669
1024 376 283 837 399 1248 315z m-9314 -291 c0 -107 7 -214 17 -282 9 -59 14
-110 12 -112 -4 -4 -409 150 -431 163 -5 4 82 95 195 204 112 109 205 198 205
199 1 0 2 -78 2 -172z m-3613 -42 c324 -73 595 -252 759 -499 68 -103 96 -159
135 -270 108 -308 103 -638 -16 -980 -285 -821 -1148 -1362 -1925 -1206 -419
84 -755 369 -905 768 -76 202 -103 468 -69 685 101 639 564 1198 1186 1429 87
32 275 79 360 90 79 11 406 -1 475 -17z"/>
<path d="M4148 5705 c-157 -25 -398 -119 -398 -155 0 -44 490 -1644 509 -1663
11 -11 60 18 201 117 271 190 446 378 540 579 65 138 75 189 75 382 0 195 -8
241 -67 364 -58 123 -167 230 -298 295 -52 25 -131 55 -175 66 -106 27 -274
34 -387 15z m212 -511 c64 -20 138 -81 171 -140 58 -103 62 -328 8 -454 -21
-48 -64 -99 -75 -88 -5 5 -155 480 -209 662 l-15 48 38 -6 c20 -4 57 -14 82
-22z"/>
<path d="M13365 6120 c-345 -54 -617 -303 -696 -638 -18 -73 -20 -109 -16
-217 5 -153 21 -217 81 -340 54 -108 117 -189 210 -267 60 -50 72 -57 87 -46
26 19 1079 1216 1079 1227 0 12 -101 104 -157 142 -64 44 -197 104 -274 122
-83 21 -236 29 -314 17z m89 -440 c33 -5 64 -14 69 -19 9 -9 -475 -571 -493
-571 -4 0 -18 31 -30 70 -49 153 -10 343 96 460 35 39 39 40 159 64 39 8 141
6 199 -4z"/>
<path d="M20161 5145 c-164 -30 -295 -99 -417 -220 -105 -104 -161 -201 -190
-331 -22 -101 -15 -261 16 -354 80 -237 262 -414 504 -489 306 -94 654 2 849
237 138 165 196 390 153 591 -20 94 -92 243 -115 239 -13 -3 -16 -19 -16 -103
0 -89 -3 -106 -28 -156 -80 -163 -280 -261 -469 -230 -242 39 -404 236 -367
448 19 108 109 223 216 273 49 23 146 50 179 50 21 0 40 25 26 34 -14 8 -164
26 -215 25 -29 0 -85 -7 -126 -14z"/>
<path d="M7235 4761 c-163 -41 -291 -116 -405 -238 -243 -260 -239 -658 10
-935 60 -68 189 -155 280 -191 343 -134 745 -24 945 258 91 129 125 227 132
385 4 88 2 130 -11 180 -28 111 -104 256 -129 247 -8 -2 -12 -40 -12 -113 0
-99 -2 -114 -27 -161 -38 -72 -82 -120 -153 -165 -77 -50 -148 -70 -249 -70
-141 0 -251 46 -341 144 -68 73 -96 145 -96 242 0 81 17 137 60 200 63 91 164
155 283 179 81 16 91 41 22 51 -85 11 -237 5 -309 -13z"/>
</g>
</svg>
